<svg width="381" height="642" viewBox="0 0 381 642" fill="none" xmlns="http://www.w3.org/2000/svg">
<g opacity="0.3" filter="url(#filter0_d_350_270)">
<circle cx="60" cy="321" r="300" transform="rotate(90 60 321)" fill="#191919" fill-opacity="0.14"/>
<circle cx="60" cy="321" r="300.5" transform="rotate(90 60 321)" stroke="#191919" stroke-opacity="0.15"/>
<path d="M60 621C-3.35376 621 -65.0813 600.943 -116.336 563.705L60 321L60 621Z" fill="#191919" fill-opacity="0.14"/>
<path d="M-116.336 563.705C-167.59 526.467 -205.74 473.958 -225.317 413.705L60 321L-116.336 563.705Z" fill="#191919" fill-opacity="0.25"/>
<path d="M-225.317 413.705C-244.894 353.452 -244.894 288.548 -225.317 228.295L60 321L-225.317 413.705Z" fill="#191919" fill-opacity="0.14"/>
<path d="M-225.317 228.295C-205.74 168.042 -167.59 115.533 -116.336 78.2949L60 321L-225.317 228.295Z" fill="#191919" fill-opacity="0.25"/>
<path d="M-116.336 78.2949C-65.0812 41.0565 -3.35373 21 60.0001 21L60 321L-116.336 78.2949Z" fill="#191919" fill-opacity="0.14"/>
<path d="M60.0001 21C123.354 21 185.081 41.0565 236.336 78.2949L60 321L60.0001 21Z" fill="#191919" fill-opacity="0.25"/>
<path d="M236.336 78.2949C287.59 115.533 325.74 168.042 345.317 228.295L60 321L236.336 78.2949Z" fill="#191919" fill-opacity="0.14"/>
<path d="M345.317 228.295C364.894 288.548 364.894 353.452 345.317 413.705L60 321L345.317 228.295Z" fill="#191919" fill-opacity="0.25"/>
<path d="M345.317 413.705C325.74 473.958 287.59 526.467 236.335 563.705L60 321L345.317 413.705Z" fill="#191919" fill-opacity="0.14"/>
<path d="M236.335 563.705C185.081 600.944 123.354 621 59.9998 621L60 321L236.335 563.705Z" fill="#191919" fill-opacity="0.25"/>
<circle cx="60.0001" cy="321" r="18" transform="rotate(90 60.0001 321)" fill="white"/>
<circle cx="60" cy="321" r="300" transform="rotate(90 60 321)" fill="#191919" fill-opacity="0.14"/>
<circle cx="60" cy="321" r="295.5" transform="rotate(90 60 321)" stroke="white" stroke-opacity="0.8" stroke-width="9"/>
</g>
<defs>
<filter id="filter0_d_350_270" x="-261" y="-1.90735e-06" width="642" height="642" filterUnits="userSpaceOnUse" color-interpolation-filters="sRGB">
<feFlood flood-opacity="0" result="BackgroundImageFix"/>
<feColorMatrix in="SourceAlpha" type="matrix" values="0 0 0 0 0 0 0 0 0 0 0 0 0 0 0 0 0 0 127 0" result="hardAlpha"/>
<feOffset/>
<feGaussianBlur stdDeviation="10"/>
<feComposite in2="hardAlpha" operator="out"/>
<feColorMatrix type="matrix" values="0 0 0 0 0.0980392 0 0 0 0 0.0980392 0 0 0 0 0.0980392 0 0 0 0.15 0"/>
<feBlend mode="normal" in2="BackgroundImageFix" result="effect1_dropShadow_350_270"/>
<feBlend mode="normal" in="SourceGraphic" in2="effect1_dropShadow_350_270" result="shape"/>
</filter>
</defs>
</svg>
