<svg width="600" height="600" viewBox="0 0 600 600" fill="none" xmlns="http://www.w3.org/2000/svg">
<g clip-path="url(#clip0_58_868)">
<path d="M300 600C236.646 600 174.919 579.943 123.664 542.705L300 300L300 600Z" fill="#5E8FE0"/>
<path d="M300 600C236.646 600 174.919 579.943 123.664 542.705L300 300L300 600Z" fill="#191919" fill-opacity="0.14"/>
<path d="M123.664 542.705C72.4102 505.467 34.2605 452.958 14.6831 392.705L300 300L123.664 542.705Z" fill="#6698DE"/>
<path d="M123.664 542.705C72.4102 505.467 34.2605 452.958 14.6831 392.705L300 300L123.664 542.705Z" fill="#191919" fill-opacity="0.14"/>
<path d="M14.6831 392.705C-4.8943 332.452 -4.8943 267.548 14.6831 207.295L300 300L14.6831 392.705Z" fill="#6EA0DC"/>
<path d="M14.6831 392.705C-4.8943 332.452 -4.8943 267.548 14.6831 207.295L300 300L14.6831 392.705Z" fill="#191919" fill-opacity="0.14"/>
<path d="M14.6831 207.295C34.2605 147.042 72.4102 94.5333 123.664 57.2949L300 300L14.6831 207.295Z" fill="#7598DA"/>
<path d="M14.6831 207.295C34.2605 147.042 72.4102 94.5333 123.664 57.2949L300 300L14.6831 207.295Z" fill="#191919" fill-opacity="0.14"/>
<path d="M123.664 57.2949C174.919 20.0565 236.646 -2.14213e-05 300 -1.31134e-05L300 300L123.664 57.2949Z" fill="#7D91D8"/>
<path d="M123.664 57.2949C174.919 20.0565 236.646 -2.14213e-05 300 -1.31134e-05L300 300L123.664 57.2949Z" fill="#191919" fill-opacity="0.14"/>
<path d="M300 -1.31134e-05C363.354 -4.80557e-06 425.081 20.0565 476.336 57.2949L300 300L300 -1.31134e-05Z" fill="#8589D6"/>
<path d="M300 -1.31134e-05C363.354 -4.80557e-06 425.081 20.0565 476.336 57.2949L300 300L300 -1.31134e-05Z" fill="#191919" fill-opacity="0.14"/>
<path d="M476.336 57.2949C527.59 94.5333 565.74 147.042 585.317 207.295L300 300L476.336 57.2949Z" fill="#7283DB"/>
<path d="M476.336 57.2949C527.59 94.5333 565.74 147.042 585.317 207.295L300 300L476.336 57.2949Z" fill="#191919" fill-opacity="0.14"/>
<path d="M585.317 207.295C604.894 267.548 604.894 332.452 585.317 392.705L300 300L585.317 207.295Z" fill="#4776E6"/>
<path d="M585.317 207.295C604.894 267.548 604.894 332.452 585.317 392.705L300 300L585.317 207.295Z" fill="#191919" fill-opacity="0.14"/>
<path d="M585.317 392.705C565.74 452.958 527.59 505.467 476.335 542.705L300 300L585.317 392.705Z" fill="#4F7EE4"/>
<path d="M585.317 392.705C565.74 452.958 527.59 505.467 476.335 542.705L300 300L585.317 392.705Z" fill="#191919" fill-opacity="0.14"/>
<path d="M476.335 542.705C425.081 579.944 363.354 600 300 600L300 300L476.335 542.705Z" fill="#5787E2"/>
<path d="M476.335 542.705C425.081 579.944 363.354 600 300 600L300 300L476.335 542.705Z" fill="#191919" fill-opacity="0.14"/>
<circle cx="300" cy="300" r="18" transform="rotate(90 300 300)" fill="white"/>
<g filter="url(#filter0_b_58_868)">
<circle cx="300" cy="300" r="295.5" transform="rotate(90 300 300)" stroke="white" stroke-opacity="0.8" stroke-width="9"/>
</g>
<g filter="url(#filter1_b_58_868)">
<circle cx="300" cy="300" r="300.5" transform="rotate(90 300 300)" stroke="#191919" stroke-opacity="0.15"/>
</g>
</g>
<defs>
<filter id="filter0_b_58_868" x="-10" y="-10" width="620" height="620" filterUnits="userSpaceOnUse" color-interpolation-filters="sRGB">
<feFlood flood-opacity="0" result="BackgroundImageFix"/>
<feGaussianBlur in="BackgroundImageFix" stdDeviation="5"/>
<feComposite in2="SourceAlpha" operator="in" result="effect1_backgroundBlur_58_868"/>
<feBlend mode="normal" in="SourceGraphic" in2="effect1_backgroundBlur_58_868" result="shape"/>
</filter>
<filter id="filter1_b_58_868" x="-11" y="-11" width="622" height="622" filterUnits="userSpaceOnUse" color-interpolation-filters="sRGB">
<feFlood flood-opacity="0" result="BackgroundImageFix"/>
<feGaussianBlur in="BackgroundImageFix" stdDeviation="5"/>
<feComposite in2="SourceAlpha" operator="in" result="effect1_backgroundBlur_58_868"/>
<feBlend mode="normal" in="SourceGraphic" in2="effect1_backgroundBlur_58_868" result="shape"/>
</filter>
<clipPath id="clip0_58_868">
<rect x="600" width="600" height="600" rx="300" transform="rotate(90 600 0)" fill="white"/>
</clipPath>
</defs>
</svg>
